<?xml version="1.0" encoding="UTF-8"?>
<svg xmlns="http://www.w3.org/2000/svg" style="display:none">
  <symbol id="i-v" viewBox="0 0 24 24" fill="none" stroke="currentColor" stroke-width="1.5">
    <path d="M4 6 L12 18 L20 6" stroke-linecap="round" stroke-linejoin="round"/>
  </symbol>
  <symbol id="i-truck" viewBox="0 0 24 24" fill="none" stroke="currentColor" stroke-width="1.2">
    <path d="M3 17 L3 7 L15 7 L15 17 M15 11 L19 11 L21 14 L21 17 L15 17"/>
    <circle cx="7" cy="17" r="2"/>
    <circle cx="17" cy="17" r="2"/>
  </symbol>
  <symbol id="i-return" viewBox="0 0 24 24" fill="none" stroke="currentColor" stroke-width="1.2">
    <path d="M3 12 A9 9 0 1 0 6 5.5 L3 8 M3 5 L3 8 L6 8" stroke-linecap="round" stroke-linejoin="round"/>
  </symbol>
  <symbol id="i-check" viewBox="0 0 24 24" fill="none" stroke="currentColor" stroke-width="1.5">
    <path d="M5 13 L10 18 L20 6" stroke-linecap="round" stroke-linejoin="round"/>
  </symbol>
  <symbol id="i-leaf" viewBox="0 0 24 24" fill="none" stroke="currentColor" stroke-width="1.2">
    <path d="M5 19 C 5 11 11 5 19 5 C 19 13 13 19 5 19 Z M9 15 L19 5"/>
  </symbol>
  <symbol id="i-flask" viewBox="0 0 24 24" fill="none" stroke="currentColor" stroke-width="1.2">
    <path d="M9 3 L9 9 L4 19 Q 4 21 6 21 L18 21 Q 20 21 20 19 L15 9 L15 3 Z M8 3 L16 3"/>
  </symbol>
  <symbol id="i-droplet" viewBox="0 0 24 24" fill="none" stroke="currentColor" stroke-width="1.2">
    <path d="M12 3 C 8 9 5 13 5 16 A 7 7 0 0 0 19 16 C 19 13 16 9 12 3 Z"/>
  </symbol>
  <symbol id="i-clock" viewBox="0 0 24 24" fill="none" stroke="currentColor" stroke-width="1.2">
    <circle cx="12" cy="12" r="9"/>
    <path d="M12 7 L12 12 L16 14" stroke-linecap="round"/>
  </symbol>
  <symbol id="i-star" viewBox="0 0 24 24" fill="currentColor">
    <path d="M12 2 L15 9 L22 9 L17 14 L19 21 L12 17 L5 21 L7 14 L2 9 L9 9 Z"/>
  </symbol>
  <symbol id="i-pebble" viewBox="0 0 24 24" fill="none" stroke="currentColor" stroke-width="1.2">
    <ellipse cx="9" cy="14" rx="4" ry="3"/>
    <ellipse cx="16" cy="11" rx="4" ry="3"/>
    <ellipse cx="12" cy="18" rx="4" ry="2"/>
  </symbol>
  <symbol id="i-cart" viewBox="0 0 24 24" fill="none" stroke="currentColor" stroke-width="1.4">
    <path d="M3 5 L6 5 L8 17 L19 17 L21 8 L7 8" stroke-linecap="round" stroke-linejoin="round"/>
    <circle cx="9" cy="20" r="1.2" fill="currentColor"/>
    <circle cx="17" cy="20" r="1.2" fill="currentColor"/>
  </symbol>
  <symbol id="i-user" viewBox="0 0 24 24" fill="none" stroke="currentColor" stroke-width="1.4">
    <circle cx="12" cy="9" r="4"/>
    <path d="M4 21 C 4 16 8 14 12 14 C 16 14 20 16 20 21" stroke-linecap="round"/>
  </symbol>
  <symbol id="i-burger" viewBox="0 0 24 24" fill="none" stroke="currentColor" stroke-width="1.4">
    <path d="M4 7 L20 7 M4 12 L20 12 M4 17 L20 17" stroke-linecap="round"/>
  </symbol>
  <symbol id="i-arrow" viewBox="0 0 24 24" fill="none" stroke="currentColor" stroke-width="1.4">
    <path d="M5 12 L19 12 M14 7 L19 12 L14 17" stroke-linecap="round" stroke-linejoin="round"/>
  </symbol>
  <symbol id="i-instagram" viewBox="0 0 24 24" fill="none" stroke="currentColor" stroke-width="1.4">
    <rect x="3" y="3" width="18" height="18" rx="5"/>
    <circle cx="12" cy="12" r="4"/>
    <circle cx="17.5" cy="6.5" r="0.8" fill="currentColor"/>
  </symbol>
  <symbol id="i-tiktok" viewBox="0 0 24 24" fill="none" stroke="currentColor" stroke-width="1.4">
    <path d="M14 4 L14 16 A 4 4 0 1 1 10 12 M14 4 C 14 7 16 9 19 9"/>
  </symbol>
  <symbol id="i-pinterest" viewBox="0 0 24 24" fill="none" stroke="currentColor" stroke-width="1.4">
    <circle cx="12" cy="12" r="9"/>
    <path d="M11 8 C 14 8 16 10 16 13 C 16 16 14 18 12 18 C 11 18 10 17 10 16 L 11 21"/>
  </symbol>
  <symbol id="i-bust" viewBox="0 0 200 120" fill="none" stroke="currentColor" stroke-width="0.8">
    <path d="M50 100 C 60 70 80 60 100 60 C 120 60 140 70 150 100" stroke-linecap="round"/>
    <circle cx="100" cy="40" r="22" stroke-dasharray="0"/>
    <path d="M70 80 L 130 80" stroke-dasharray="2 3" opacity="0.6"/>
    <path d="M65 90 L 135 90" stroke-dasharray="2 3" opacity="0.6"/>
    <path d="M60 100 L 140 100" stroke-dasharray="2 3" opacity="0.6"/>
  </symbol>
</svg>
